<mxfile host="Electron" modified="2023-08-17T17:17:17.409Z" agent="Mozilla/5.0 (Windows NT 10.0; Win64; x64) AppleWebKit/537.36 (KHTML, like Gecko) draw.io/21.6.8 Chrome/114.0.5735.289 Electron/25.5.0 Safari/537.36" etag="ggIyvGbofRkpYyoh4ZW8" version="21.6.8" type="device">
  <diagram name="Page-1" id="mmEJGyu3QK6wT3mv75FZ">
    <mxGraphModel dx="1201" dy="783" grid="1" gridSize="10" guides="1" tooltips="1" connect="1" arrows="1" fold="1" page="1" pageScale="1" pageWidth="850" pageHeight="1100" math="0" shadow="0">
      <root>
        <mxCell id="0" />
        <mxCell id="1" parent="0" />
        <mxCell id="4G_sN9Gf0hqI5f3FYF6n-68" style="edgeStyle=orthogonalEdgeStyle;rounded=0;orthogonalLoop=1;jettySize=auto;html=1;exitX=0.5;exitY=1;exitDx=0;exitDy=0;exitPerimeter=0;" parent="1" source="4G_sN9Gf0hqI5f3FYF6n-83" edge="1">
          <mxGeometry relative="1" as="geometry">
            <mxPoint x="579" y="90" as="sourcePoint" />
            <mxPoint x="579" y="120" as="targetPoint" />
          </mxGeometry>
        </mxCell>
        <mxCell id="4G_sN9Gf0hqI5f3FYF6n-71" style="edgeStyle=orthogonalEdgeStyle;rounded=0;orthogonalLoop=1;jettySize=auto;html=1;exitX=0.5;exitY=1;exitDx=0;exitDy=0;" parent="1" source="4G_sN9Gf0hqI5f3FYF6n-87" target="4G_sN9Gf0hqI5f3FYF6n-67" edge="1">
          <mxGeometry relative="1" as="geometry">
            <mxPoint x="579.2" y="180" as="targetPoint" />
            <mxPoint x="579" y="162" as="sourcePoint" />
          </mxGeometry>
        </mxCell>
        <mxCell id="4G_sN9Gf0hqI5f3FYF6n-74" value="Yes" style="edgeStyle=orthogonalEdgeStyle;rounded=0;orthogonalLoop=1;jettySize=auto;html=1;entryX=1;entryY=0.5;entryDx=0;entryDy=0;align=center;fontSize=10;verticalAlign=bottom;" parent="1" source="4G_sN9Gf0hqI5f3FYF6n-67" target="4G_sN9Gf0hqI5f3FYF6n-73" edge="1">
          <mxGeometry relative="1" as="geometry" />
        </mxCell>
        <mxCell id="4G_sN9Gf0hqI5f3FYF6n-86" value="No" style="edgeStyle=orthogonalEdgeStyle;rounded=0;orthogonalLoop=1;jettySize=auto;html=1;exitX=1;exitY=0.5;exitDx=0;exitDy=0;exitPerimeter=0;entryX=0;entryY=0.5;entryDx=0;entryDy=0;fontSize=10;verticalAlign=bottom;" parent="1" source="4G_sN9Gf0hqI5f3FYF6n-67" target="4G_sN9Gf0hqI5f3FYF6n-85" edge="1">
          <mxGeometry relative="1" as="geometry" />
        </mxCell>
        <mxCell id="4G_sN9Gf0hqI5f3FYF6n-67" value="Update&lt;br style=&quot;font-size: 10px;&quot;&gt;Required?" style="strokeWidth=2;html=1;shape=mxgraph.flowchart.decision;whiteSpace=wrap;fontSize=10;strokeColor=#FFB570;" parent="1" vertex="1">
          <mxGeometry x="519" y="200" width="121" height="40" as="geometry" />
        </mxCell>
        <mxCell id="4G_sN9Gf0hqI5f3FYF6n-76" style="edgeStyle=orthogonalEdgeStyle;rounded=0;orthogonalLoop=1;jettySize=auto;html=1;exitX=0.5;exitY=1;exitDx=0;exitDy=0;entryX=0.5;entryY=0;entryDx=0;entryDy=0;" parent="1" source="4G_sN9Gf0hqI5f3FYF6n-73" target="4G_sN9Gf0hqI5f3FYF6n-75" edge="1">
          <mxGeometry relative="1" as="geometry" />
        </mxCell>
        <mxCell id="4G_sN9Gf0hqI5f3FYF6n-73" value="Download new Bootstrapper" style="rounded=1;whiteSpace=wrap;html=1;absoluteArcSize=1;arcSize=14;strokeWidth=2;fontSize=10;strokeColor=#FFB570;fillColor=#7EA6E0;" parent="1" vertex="1">
          <mxGeometry x="360" y="200" width="120" height="40" as="geometry" />
        </mxCell>
        <mxCell id="4G_sN9Gf0hqI5f3FYF6n-78" style="edgeStyle=orthogonalEdgeStyle;rounded=0;orthogonalLoop=1;jettySize=auto;html=1;exitX=0;exitY=0.5;exitDx=0;exitDy=0;" parent="1" source="4G_sN9Gf0hqI5f3FYF6n-75" target="4G_sN9Gf0hqI5f3FYF6n-122" edge="1">
          <mxGeometry relative="1" as="geometry">
            <mxPoint x="320" y="300" as="targetPoint" />
          </mxGeometry>
        </mxCell>
        <mxCell id="4G_sN9Gf0hqI5f3FYF6n-121" style="edgeStyle=orthogonalEdgeStyle;rounded=0;orthogonalLoop=1;jettySize=auto;html=1;exitX=0.5;exitY=1;exitDx=0;exitDy=0;" parent="1" source="4G_sN9Gf0hqI5f3FYF6n-75" target="4G_sN9Gf0hqI5f3FYF6n-81" edge="1">
          <mxGeometry relative="1" as="geometry" />
        </mxCell>
        <mxCell id="4G_sN9Gf0hqI5f3FYF6n-75" value="Unzip new Bootstrapper" style="rounded=1;whiteSpace=wrap;html=1;absoluteArcSize=1;arcSize=14;strokeWidth=2;fontSize=10;strokeColor=#FFB570;" parent="1" vertex="1">
          <mxGeometry x="360" y="280" width="120" height="40" as="geometry" />
        </mxCell>
        <mxCell id="4G_sN9Gf0hqI5f3FYF6n-82" value="" style="edgeStyle=orthogonalEdgeStyle;rounded=0;orthogonalLoop=1;jettySize=auto;html=1;entryX=0;entryY=0.5;entryDx=0;entryDy=0;entryPerimeter=0;verticalAlign=bottom;exitX=0.5;exitY=0;exitDx=0;exitDy=0;" parent="1" source="4G_sN9Gf0hqI5f3FYF6n-123" target="4G_sN9Gf0hqI5f3FYF6n-83" edge="1">
          <mxGeometry relative="1" as="geometry">
            <mxPoint x="260" y="120" as="sourcePoint" />
            <mxPoint x="519" y="75" as="targetPoint" />
          </mxGeometry>
        </mxCell>
        <mxCell id="4G_sN9Gf0hqI5f3FYF6n-81" value="Exit Bootstrapper" style="strokeWidth=2;html=1;shape=mxgraph.flowchart.terminator;whiteSpace=wrap;strokeColor=#FFB570;" parent="1" vertex="1">
          <mxGeometry x="360" y="360" width="120" height="40" as="geometry" />
        </mxCell>
        <mxCell id="4G_sN9Gf0hqI5f3FYF6n-83" value="Launch Bootstrapper" style="strokeWidth=2;html=1;shape=mxgraph.flowchart.start_1;whiteSpace=wrap;strokeColor=#FFB570;" parent="1" vertex="1">
          <mxGeometry x="519" y="40" width="120" height="40" as="geometry" />
        </mxCell>
        <mxCell id="4G_sN9Gf0hqI5f3FYF6n-100" style="edgeStyle=orthogonalEdgeStyle;rounded=0;orthogonalLoop=1;jettySize=auto;html=1;exitX=0.5;exitY=1;exitDx=0;exitDy=0;entryX=0.5;entryY=0;entryDx=0;entryDy=0;" parent="1" source="4G_sN9Gf0hqI5f3FYF6n-85" target="4G_sN9Gf0hqI5f3FYF6n-99" edge="1">
          <mxGeometry relative="1" as="geometry" />
        </mxCell>
        <mxCell id="4G_sN9Gf0hqI5f3FYF6n-85" value="Get Version of Updater" style="rounded=1;whiteSpace=wrap;html=1;absoluteArcSize=1;arcSize=14;strokeWidth=2;fontSize=10;strokeColor=#FFB570;fillColor=#7EA6E0;" parent="1" vertex="1">
          <mxGeometry x="680" y="200" width="120" height="40" as="geometry" />
        </mxCell>
        <mxCell id="4G_sN9Gf0hqI5f3FYF6n-87" value="Check for Bootstrapper Update" style="rounded=1;whiteSpace=wrap;html=1;absoluteArcSize=1;arcSize=14;strokeWidth=2;fontSize=10;strokeColor=#FFB570;fillColor=#7EA6E0;" parent="1" vertex="1">
          <mxGeometry x="519" y="120" width="120" height="40" as="geometry" />
        </mxCell>
        <mxCell id="4G_sN9Gf0hqI5f3FYF6n-102" style="edgeStyle=orthogonalEdgeStyle;rounded=0;orthogonalLoop=1;jettySize=auto;html=1;exitX=0.5;exitY=1;exitDx=0;exitDy=0;entryX=0.5;entryY=0;entryDx=0;entryDy=0;" parent="1" source="4G_sN9Gf0hqI5f3FYF6n-99" target="4G_sN9Gf0hqI5f3FYF6n-101" edge="1">
          <mxGeometry relative="1" as="geometry" />
        </mxCell>
        <mxCell id="4G_sN9Gf0hqI5f3FYF6n-99" value="Download Updater" style="rounded=1;whiteSpace=wrap;html=1;absoluteArcSize=1;arcSize=14;strokeWidth=2;fontSize=10;strokeColor=#FFB570;fillColor=#7EA6E0;" parent="1" vertex="1">
          <mxGeometry x="680" y="280" width="120" height="40" as="geometry" />
        </mxCell>
        <mxCell id="4G_sN9Gf0hqI5f3FYF6n-104" style="edgeStyle=orthogonalEdgeStyle;rounded=0;orthogonalLoop=1;jettySize=auto;html=1;exitX=0.5;exitY=1;exitDx=0;exitDy=0;entryX=0.5;entryY=0;entryDx=0;entryDy=0;" parent="1" source="4G_sN9Gf0hqI5f3FYF6n-101" target="4G_sN9Gf0hqI5f3FYF6n-103" edge="1">
          <mxGeometry relative="1" as="geometry" />
        </mxCell>
        <mxCell id="4G_sN9Gf0hqI5f3FYF6n-101" value="Download Updater AppSettings.json" style="rounded=1;whiteSpace=wrap;html=1;absoluteArcSize=1;arcSize=14;strokeWidth=2;fontSize=10;strokeColor=#FFB570;fillColor=#7EA6E0;" parent="1" vertex="1">
          <mxGeometry x="680" y="360" width="120" height="40" as="geometry" />
        </mxCell>
        <mxCell id="4G_sN9Gf0hqI5f3FYF6n-106" style="edgeStyle=orthogonalEdgeStyle;rounded=0;orthogonalLoop=1;jettySize=auto;html=1;exitX=0;exitY=0.5;exitDx=0;exitDy=0;entryX=1;entryY=0.5;entryDx=0;entryDy=0;entryPerimeter=0;" parent="1" source="4G_sN9Gf0hqI5f3FYF6n-103" target="4G_sN9Gf0hqI5f3FYF6n-105" edge="1">
          <mxGeometry relative="1" as="geometry" />
        </mxCell>
        <mxCell id="4G_sN9Gf0hqI5f3FYF6n-129" value="Wait for Updater" style="edgeStyle=orthogonalEdgeStyle;rounded=0;orthogonalLoop=1;jettySize=auto;html=1;exitX=0.5;exitY=1;exitDx=0;exitDy=0;dashed=1;dashPattern=1 1;align=center;verticalAlign=middle;" parent="1" source="4G_sN9Gf0hqI5f3FYF6n-103" target="4G_sN9Gf0hqI5f3FYF6n-113" edge="1">
          <mxGeometry relative="1" as="geometry" />
        </mxCell>
        <mxCell id="4G_sN9Gf0hqI5f3FYF6n-103" value="Unzip Updater" style="rounded=1;whiteSpace=wrap;html=1;absoluteArcSize=1;arcSize=14;strokeWidth=2;fontSize=10;strokeColor=#FFB570;" parent="1" vertex="1">
          <mxGeometry x="680" y="440" width="120" height="40" as="geometry" />
        </mxCell>
        <mxCell id="4G_sN9Gf0hqI5f3FYF6n-108" style="edgeStyle=orthogonalEdgeStyle;rounded=0;orthogonalLoop=1;jettySize=auto;html=1;exitX=0.5;exitY=1;exitDx=0;exitDy=0;exitPerimeter=0;" parent="1" source="4G_sN9Gf0hqI5f3FYF6n-105" target="4G_sN9Gf0hqI5f3FYF6n-107" edge="1">
          <mxGeometry relative="1" as="geometry" />
        </mxCell>
        <mxCell id="4G_sN9Gf0hqI5f3FYF6n-105" value="Launch Updater" style="strokeWidth=2;html=1;shape=mxgraph.flowchart.start_1;whiteSpace=wrap;strokeColor=#97D077;" parent="1" vertex="1">
          <mxGeometry x="520" y="440" width="120" height="40" as="geometry" />
        </mxCell>
        <mxCell id="4G_sN9Gf0hqI5f3FYF6n-110" style="edgeStyle=orthogonalEdgeStyle;rounded=0;orthogonalLoop=1;jettySize=auto;html=1;exitX=0.5;exitY=1;exitDx=0;exitDy=0;entryX=0.5;entryY=0;entryDx=0;entryDy=0;" parent="1" source="4G_sN9Gf0hqI5f3FYF6n-107" target="4G_sN9Gf0hqI5f3FYF6n-109" edge="1">
          <mxGeometry relative="1" as="geometry">
            <mxPoint x="231.5" y="550" as="targetPoint" />
          </mxGeometry>
        </mxCell>
        <mxCell id="4G_sN9Gf0hqI5f3FYF6n-107" value="Get Version of Customizations" style="rounded=1;whiteSpace=wrap;html=1;absoluteArcSize=1;arcSize=14;strokeWidth=2;fontSize=10;strokeColor=#97D077;fillColor=#7EA6E0;" parent="1" vertex="1">
          <mxGeometry x="520.5" y="520" width="120" height="40" as="geometry" />
        </mxCell>
        <mxCell id="4G_sN9Gf0hqI5f3FYF6n-112" style="edgeStyle=orthogonalEdgeStyle;rounded=0;orthogonalLoop=1;jettySize=auto;html=1;exitX=0.5;exitY=1;exitDx=0;exitDy=0;entryX=0.5;entryY=0;entryDx=0;entryDy=0;" parent="1" source="4G_sN9Gf0hqI5f3FYF6n-109" target="4G_sN9Gf0hqI5f3FYF6n-111" edge="1">
          <mxGeometry relative="1" as="geometry" />
        </mxCell>
        <mxCell id="4G_sN9Gf0hqI5f3FYF6n-109" value="Download DataWarehouse" style="rounded=1;whiteSpace=wrap;html=1;absoluteArcSize=1;arcSize=14;strokeWidth=2;fontSize=10;strokeColor=#97D077;fillColor=#7EA6E0;" parent="1" vertex="1">
          <mxGeometry x="520.5" y="600" width="120" height="40" as="geometry" />
        </mxCell>
        <mxCell id="4G_sN9Gf0hqI5f3FYF6n-115" style="edgeStyle=orthogonalEdgeStyle;rounded=0;orthogonalLoop=1;jettySize=auto;html=1;exitX=0.5;exitY=1;exitDx=0;exitDy=0;entryX=0.5;entryY=0;entryDx=0;entryDy=0;" parent="1" source="4G_sN9Gf0hqI5f3FYF6n-111" target="4G_sN9Gf0hqI5f3FYF6n-114" edge="1">
          <mxGeometry relative="1" as="geometry" />
        </mxCell>
        <mxCell id="4G_sN9Gf0hqI5f3FYF6n-111" value="Download Customizations" style="rounded=1;whiteSpace=wrap;html=1;absoluteArcSize=1;arcSize=14;strokeWidth=2;fontSize=10;strokeColor=#97D077;fillColor=#7EA6E0;" parent="1" vertex="1">
          <mxGeometry x="520.5" y="680" width="120" height="40" as="geometry" />
        </mxCell>
        <mxCell id="4G_sN9Gf0hqI5f3FYF6n-113" value="Exit Bootstrapper" style="strokeWidth=2;html=1;shape=mxgraph.flowchart.terminator;whiteSpace=wrap;strokeColor=#FFB570;" parent="1" vertex="1">
          <mxGeometry x="680.5" y="1000" width="120" height="40" as="geometry" />
        </mxCell>
        <mxCell id="4G_sN9Gf0hqI5f3FYF6n-117" style="edgeStyle=orthogonalEdgeStyle;rounded=0;orthogonalLoop=1;jettySize=auto;html=1;exitX=0.5;exitY=1;exitDx=0;exitDy=0;entryX=0.5;entryY=0;entryDx=0;entryDy=0;" parent="1" source="4G_sN9Gf0hqI5f3FYF6n-114" target="4G_sN9Gf0hqI5f3FYF6n-116" edge="1">
          <mxGeometry relative="1" as="geometry" />
        </mxCell>
        <mxCell id="4G_sN9Gf0hqI5f3FYF6n-114" value="Unzip DataWarehouse" style="rounded=1;whiteSpace=wrap;html=1;absoluteArcSize=1;arcSize=14;strokeWidth=2;fontSize=10;strokeColor=#97D077;fillColor=default;" parent="1" vertex="1">
          <mxGeometry x="520.5" y="760" width="120" height="40" as="geometry" />
        </mxCell>
        <mxCell id="4G_sN9Gf0hqI5f3FYF6n-128" style="edgeStyle=orthogonalEdgeStyle;rounded=0;orthogonalLoop=1;jettySize=auto;html=1;exitX=0.5;exitY=1;exitDx=0;exitDy=0;" parent="1" source="4G_sN9Gf0hqI5f3FYF6n-116" target="4G_sN9Gf0hqI5f3FYF6n-127" edge="1">
          <mxGeometry relative="1" as="geometry" />
        </mxCell>
        <mxCell id="4G_sN9Gf0hqI5f3FYF6n-116" value="Unzip Customizations" style="rounded=1;whiteSpace=wrap;html=1;absoluteArcSize=1;arcSize=14;strokeWidth=2;fontSize=10;strokeColor=#97D077;fillColor=default;" parent="1" vertex="1">
          <mxGeometry x="520.5" y="840" width="120" height="40" as="geometry" />
        </mxCell>
        <mxCell id="4G_sN9Gf0hqI5f3FYF6n-124" style="edgeStyle=orthogonalEdgeStyle;rounded=0;orthogonalLoop=1;jettySize=auto;html=1;exitX=0.5;exitY=0;exitDx=0;exitDy=0;exitPerimeter=0;entryX=0.5;entryY=1;entryDx=0;entryDy=0;" parent="1" source="4G_sN9Gf0hqI5f3FYF6n-122" target="4G_sN9Gf0hqI5f3FYF6n-123" edge="1">
          <mxGeometry relative="1" as="geometry" />
        </mxCell>
        <mxCell id="4G_sN9Gf0hqI5f3FYF6n-122" value="Launch Replacer" style="strokeWidth=2;html=1;shape=mxgraph.flowchart.start_1;whiteSpace=wrap;strokeColor=#A680B8;" parent="1" vertex="1">
          <mxGeometry x="200" y="280" width="120" height="40" as="geometry" />
        </mxCell>
        <mxCell id="4G_sN9Gf0hqI5f3FYF6n-126" style="edgeStyle=orthogonalEdgeStyle;rounded=0;orthogonalLoop=1;jettySize=auto;html=1;exitX=0;exitY=0.5;exitDx=0;exitDy=0;entryX=1;entryY=0.5;entryDx=0;entryDy=0;entryPerimeter=0;" parent="1" source="4G_sN9Gf0hqI5f3FYF6n-123" target="4G_sN9Gf0hqI5f3FYF6n-125" edge="1">
          <mxGeometry relative="1" as="geometry" />
        </mxCell>
        <mxCell id="4G_sN9Gf0hqI5f3FYF6n-123" value="Replace Bootstrapper" style="rounded=1;whiteSpace=wrap;html=1;absoluteArcSize=1;arcSize=14;strokeWidth=2;fontSize=10;strokeColor=#A680B8;" parent="1" vertex="1">
          <mxGeometry x="200" y="200" width="120" height="40" as="geometry" />
        </mxCell>
        <mxCell id="4G_sN9Gf0hqI5f3FYF6n-125" value="Exit Replacer" style="strokeWidth=2;html=1;shape=mxgraph.flowchart.terminator;whiteSpace=wrap;strokeColor=#A680B8;" parent="1" vertex="1">
          <mxGeometry x="40" y="200" width="120" height="40" as="geometry" />
        </mxCell>
        <mxCell id="4G_sN9Gf0hqI5f3FYF6n-130" style="edgeStyle=orthogonalEdgeStyle;rounded=0;orthogonalLoop=1;jettySize=auto;html=1;exitX=1;exitY=0.5;exitDx=0;exitDy=0;exitPerimeter=0;" parent="1" source="4G_sN9Gf0hqI5f3FYF6n-131" target="4G_sN9Gf0hqI5f3FYF6n-113" edge="1">
          <mxGeometry relative="1" as="geometry" />
        </mxCell>
        <mxCell id="4G_sN9Gf0hqI5f3FYF6n-132" style="edgeStyle=orthogonalEdgeStyle;rounded=0;orthogonalLoop=1;jettySize=auto;html=1;exitX=0.5;exitY=1;exitDx=0;exitDy=0;" parent="1" source="4G_sN9Gf0hqI5f3FYF6n-127" target="4G_sN9Gf0hqI5f3FYF6n-131" edge="1">
          <mxGeometry relative="1" as="geometry" />
        </mxCell>
        <mxCell id="4G_sN9Gf0hqI5f3FYF6n-127" value="Replace Customized JournalRoleLogins/&lt;br&gt;UserMappings/Users" style="rounded=1;whiteSpace=wrap;html=1;absoluteArcSize=1;arcSize=14;strokeWidth=2;fontSize=10;strokeColor=#97D077;fillColor=default;" parent="1" vertex="1">
          <mxGeometry x="520.5" y="920" width="120" height="40" as="geometry" />
        </mxCell>
        <mxCell id="4G_sN9Gf0hqI5f3FYF6n-131" value="Exit Updater" style="strokeWidth=2;html=1;shape=mxgraph.flowchart.terminator;whiteSpace=wrap;strokeColor=#97D077;" parent="1" vertex="1">
          <mxGeometry x="520" y="1000" width="120" height="40" as="geometry" />
        </mxCell>
        <mxCell id="7pzBfSB2ewcO_oMAjVDl-11" value="Legend" style="shape=table;startSize=30;container=1;collapsible=0;childLayout=tableLayout;fixedRows=1;rowLines=0;fontStyle=0;strokeColor=default;fontSize=12;" vertex="1" parent="1">
          <mxGeometry x="40" y="880" width="290" height="150" as="geometry" />
        </mxCell>
        <mxCell id="7pzBfSB2ewcO_oMAjVDl-12" value="" style="shape=tableRow;horizontal=0;startSize=0;swimlaneHead=0;swimlaneBody=0;top=0;left=0;bottom=0;right=0;collapsible=0;dropTarget=0;fillColor=none;points=[[0,0.5],[1,0.5]];portConstraint=eastwest;strokeColor=inherit;fontSize=16;" vertex="1" parent="7pzBfSB2ewcO_oMAjVDl-11">
          <mxGeometry y="30" width="290" height="30" as="geometry" />
        </mxCell>
        <mxCell id="7pzBfSB2ewcO_oMAjVDl-13" value="" style="shape=partialRectangle;html=1;whiteSpace=wrap;connectable=0;fillColor=none;top=0;left=0;bottom=0;right=0;overflow=hidden;pointerEvents=1;strokeColor=#CC0000;fontSize=12;strokeWidth=4;" vertex="1" parent="7pzBfSB2ewcO_oMAjVDl-12">
          <mxGeometry width="40" height="30" as="geometry">
            <mxRectangle width="40" height="30" as="alternateBounds" />
          </mxGeometry>
        </mxCell>
        <mxCell id="7pzBfSB2ewcO_oMAjVDl-14" value="Comsense.DataWarehouse.Bootstrapper.exe" style="shape=partialRectangle;html=1;whiteSpace=wrap;connectable=0;fillColor=none;top=0;left=0;bottom=0;right=0;align=left;spacingLeft=6;overflow=hidden;strokeColor=inherit;fontSize=10;" vertex="1" parent="7pzBfSB2ewcO_oMAjVDl-12">
          <mxGeometry x="40" width="250" height="30" as="geometry">
            <mxRectangle width="250" height="30" as="alternateBounds" />
          </mxGeometry>
        </mxCell>
        <mxCell id="7pzBfSB2ewcO_oMAjVDl-15" value="" style="shape=tableRow;horizontal=0;startSize=0;swimlaneHead=0;swimlaneBody=0;top=0;left=0;bottom=0;right=0;collapsible=0;dropTarget=0;fillColor=none;points=[[0,0.5],[1,0.5]];portConstraint=eastwest;strokeColor=inherit;fontSize=16;" vertex="1" parent="7pzBfSB2ewcO_oMAjVDl-11">
          <mxGeometry y="60" width="290" height="30" as="geometry" />
        </mxCell>
        <mxCell id="7pzBfSB2ewcO_oMAjVDl-16" value="" style="shape=partialRectangle;html=1;whiteSpace=wrap;connectable=0;fillColor=none;top=0;left=0;bottom=0;right=0;overflow=hidden;strokeColor=inherit;fontSize=12;" vertex="1" parent="7pzBfSB2ewcO_oMAjVDl-15">
          <mxGeometry width="40" height="30" as="geometry">
            <mxRectangle width="40" height="30" as="alternateBounds" />
          </mxGeometry>
        </mxCell>
        <UserObject label="Comsense.DataWarehouse.ReplaceBootstrapper.exe" link="Comsense.DataWarehouse.ReplaceBootstrapper" id="7pzBfSB2ewcO_oMAjVDl-17">
          <mxCell style="shape=partialRectangle;html=1;whiteSpace=wrap;connectable=0;fillColor=none;top=0;left=0;bottom=0;right=0;align=left;spacingLeft=6;overflow=hidden;strokeColor=inherit;fontSize=10;" vertex="1" parent="7pzBfSB2ewcO_oMAjVDl-15">
            <mxGeometry x="40" width="250" height="30" as="geometry">
              <mxRectangle width="250" height="30" as="alternateBounds" />
            </mxGeometry>
          </mxCell>
        </UserObject>
        <mxCell id="7pzBfSB2ewcO_oMAjVDl-18" value="" style="shape=tableRow;horizontal=0;startSize=0;swimlaneHead=0;swimlaneBody=0;top=0;left=0;bottom=0;right=0;collapsible=0;dropTarget=0;fillColor=none;points=[[0,0.5],[1,0.5]];portConstraint=eastwest;strokeColor=inherit;fontSize=16;" vertex="1" parent="7pzBfSB2ewcO_oMAjVDl-11">
          <mxGeometry y="90" width="290" height="30" as="geometry" />
        </mxCell>
        <mxCell id="7pzBfSB2ewcO_oMAjVDl-19" value="" style="shape=partialRectangle;html=1;whiteSpace=wrap;connectable=0;fillColor=none;top=0;left=0;bottom=0;right=0;overflow=hidden;strokeColor=inherit;fontSize=12;" vertex="1" parent="7pzBfSB2ewcO_oMAjVDl-18">
          <mxGeometry width="40" height="30" as="geometry">
            <mxRectangle width="40" height="30" as="alternateBounds" />
          </mxGeometry>
        </mxCell>
        <UserObject label="Comsense.DataWarehouse.Updater.exe" link="Comsense.DataWarehouse.Updater" id="7pzBfSB2ewcO_oMAjVDl-20">
          <mxCell style="shape=partialRectangle;html=1;whiteSpace=wrap;connectable=0;fillColor=none;top=0;left=0;bottom=0;right=0;align=left;spacingLeft=6;overflow=hidden;strokeColor=inherit;fontSize=10;" vertex="1" parent="7pzBfSB2ewcO_oMAjVDl-18">
            <mxGeometry x="40" width="250" height="30" as="geometry">
              <mxRectangle width="250" height="30" as="alternateBounds" />
            </mxGeometry>
          </mxCell>
        </UserObject>
        <mxCell id="7pzBfSB2ewcO_oMAjVDl-31" style="shape=tableRow;horizontal=0;startSize=0;swimlaneHead=0;swimlaneBody=0;top=0;left=0;bottom=0;right=0;collapsible=0;dropTarget=0;fillColor=none;points=[[0,0.5],[1,0.5]];portConstraint=eastwest;strokeColor=inherit;fontSize=16;" vertex="1" parent="7pzBfSB2ewcO_oMAjVDl-11">
          <mxGeometry y="120" width="290" height="30" as="geometry" />
        </mxCell>
        <mxCell id="7pzBfSB2ewcO_oMAjVDl-32" style="shape=partialRectangle;html=1;whiteSpace=wrap;connectable=0;fillColor=none;top=0;left=0;bottom=0;right=0;overflow=hidden;strokeColor=inherit;fontSize=12;" vertex="1" parent="7pzBfSB2ewcO_oMAjVDl-31">
          <mxGeometry width="40" height="30" as="geometry">
            <mxRectangle width="40" height="30" as="alternateBounds" />
          </mxGeometry>
        </mxCell>
        <mxCell id="7pzBfSB2ewcO_oMAjVDl-33" value="Azure Blob Storage&lt;br&gt;https://comsenseappupdates.blob.core.windows.net" style="shape=partialRectangle;html=1;whiteSpace=wrap;connectable=0;fillColor=none;top=0;left=0;bottom=0;right=0;align=left;spacingLeft=6;overflow=hidden;strokeColor=inherit;fontSize=10;" vertex="1" parent="7pzBfSB2ewcO_oMAjVDl-31">
          <mxGeometry x="40" width="250" height="30" as="geometry">
            <mxRectangle width="250" height="30" as="alternateBounds" />
          </mxGeometry>
        </mxCell>
        <mxCell id="7pzBfSB2ewcO_oMAjVDl-23" value="" style="strokeWidth=2;html=1;shape=mxgraph.flowchart.start_1;whiteSpace=wrap;strokeColor=#FFB570;perimeterSpacing=0;" vertex="1" parent="1">
          <mxGeometry x="50" y="920" width="20" height="10" as="geometry" />
        </mxCell>
        <mxCell id="7pzBfSB2ewcO_oMAjVDl-27" value="" style="strokeWidth=2;html=1;shape=mxgraph.flowchart.start_1;whiteSpace=wrap;strokeColor=#97D077;" vertex="1" parent="1">
          <mxGeometry x="50" y="980" width="20" height="10" as="geometry" />
        </mxCell>
        <mxCell id="7pzBfSB2ewcO_oMAjVDl-34" value="" style="strokeWidth=2;html=1;shape=mxgraph.flowchart.start_1;whiteSpace=wrap;strokeColor=#A680B8;" vertex="1" parent="1">
          <mxGeometry x="50" y="950" width="20" height="10" as="geometry" />
        </mxCell>
        <mxCell id="7pzBfSB2ewcO_oMAjVDl-35" value="" style="rounded=1;whiteSpace=wrap;html=1;absoluteArcSize=1;arcSize=14;strokeWidth=2;fontSize=10;strokeColor=#;fillColor=#7EA6E0;" vertex="1" parent="1">
          <mxGeometry x="50" y="1010" width="20" height="10" as="geometry" />
        </mxCell>
      </root>
    </mxGraphModel>
  </diagram>
</mxfile>
